<svg width="24" height="24" viewBox="0 0 24 24" fill="none" xmlns="http://www.w3.org/2000/svg">
<rect width="24" height="24" fill="white"/>
<path d="M20.4695 2C21.3147 2.00001 22 2.68525 22 3.53053C22 4.29312 21.4422 4.92533 20.7124 5.04174V10.4887C21.4422 10.6051 22 11.2374 22 12C22 12.7626 21.4422 13.3948 20.7124 13.5112V18.9582C21.4422 19.0746 22 19.7069 22 20.4695C22 21.3147 21.3147 22 20.4695 22C19.7069 22 19.0746 21.4422 18.9582 20.7124H13.5113C13.3949 21.4422 12.7626 22 12 22C11.2374 22 10.6051 21.4422 10.4887 20.7124H5.04178C4.92537 21.4422 4.29312 22 3.53053 22C2.68524 22 2 21.3148 2 20.4695C2.00001 19.6871 2.58713 19.0418 3.34483 18.9502V13.5193C2.58712 13.4276 2 12.7824 2 12C2.00001 11.2176 2.58713 10.5723 3.34483 10.4807V5.04977C2.58713 4.95812 2 4.31295 2 3.53053C2.00001 2.68525 2.68525 2 3.53053 2C4.31294 2.00001 4.95815 2.58713 5.04981 3.34483H10.4807C10.5724 2.58713 11.2176 2.00001 12 2C12.7824 2.00001 13.4276 2.58713 13.5193 3.34483H18.9502C19.0418 2.58713 19.6871 2 20.4695 2ZM5.03153 12.3002C4.91514 12.8854 4.46507 13.3504 3.88792 13.4885V18.981C4.46508 19.1191 4.91514 19.584 5.03153 20.1693H10.499C10.623 19.5459 11.1256 19.0589 11.7571 18.9582V13.5112C11.1256 13.4105 10.623 12.9236 10.499 12.3002H5.03153ZM13.501 12.3002C13.3808 12.9046 12.9046 13.3808 12.3002 13.501V18.9684C12.9047 19.0887 13.3808 19.5648 13.501 20.1693H18.9684C19.0886 19.5648 19.5648 19.0886 20.1693 18.9684V13.501C19.5648 13.3808 19.0886 12.9047 18.9684 12.3002H13.501ZM5.01897 3.88792C4.88543 4.44612 4.44612 4.88543 3.88792 5.01897V10.5115C4.48377 10.654 4.94416 11.145 5.04178 11.7571H10.4887C10.5925 11.1064 11.1064 10.5925 11.7571 10.4887V5.04178C11.145 4.94417 10.6541 4.48377 10.5115 3.88792H5.01897ZM13.4885 3.88792C13.3504 4.46507 12.8854 4.91509 12.3002 5.03149V10.499C12.9236 10.623 13.4106 11.1256 13.5113 11.7571H18.9582C19.0589 11.1256 19.5459 10.623 20.1693 10.499V5.03153C19.584 4.91514 19.1191 4.46508 18.981 3.88792H13.4885Z" fill="black"/>
</svg>
